<svg width="67" height="55" viewBox="0 0 67 55" fill="none" xmlns="http://www.w3.org/2000/svg">
<path d="M26.6 54.1H40.4M17.4 0.899994H5.9C4.68001 0.899994 3.50998 1.30035 2.64731 2.01299C1.78464 2.72563 1.3 3.69217 1.3 4.69999V14.2L17.4 0.899994ZM26.6 0.899994H40.4H26.6ZM49.6 0.899994H61.1C62.32 0.899994 63.49 1.30035 64.3527 2.01299C65.2154 2.72563 65.7 3.69217 65.7 4.69999V14.2L49.6 0.899994ZM1.3 21.8V33.2V21.8ZM65.7 21.8V33.2V21.8ZM1.3 40.8V50.3C1.3 51.3078 1.78464 52.2744 2.64731 52.987C3.50998 53.6996 4.68001 54.1 5.9 54.1H17.4L1.3 40.8ZM65.7 40.8V50.3C65.7 51.3078 65.2154 52.2744 64.3527 52.987C63.49 53.6996 62.32 54.1 61.1 54.1H49.6L65.7 40.8ZM33.5 14.2V40.8V14.2ZM17.4 27.5H49.6H17.4Z" stroke="#16A085"/>
</svg>
