<svg width="24" height="24" viewBox="0 0 24 24" fill="none" xmlns="http://www.w3.org/2000/svg">
<path d="M23.3322 10.2267L20.7267 9.4489C20.5465 8.81992 20.2988 8.2123 19.9878 7.63668L21.2633 5.2489C21.3112 5.15877 21.3287 5.05561 21.3133 4.95473C21.2979 4.85385 21.2504 4.76062 21.1778 4.6889L19.3189 2.82223C19.2472 2.74964 19.1539 2.70211 19.0531 2.6867C18.9522 2.67129 18.849 2.68881 18.7589 2.73667L16.3867 4.00445C15.8054 3.6783 15.1898 3.41745 14.5511 3.22667L13.7733 0.65223C13.7404 0.557353 13.6783 0.475362 13.5958 0.418058C13.5134 0.360753 13.4148 0.331091 13.3144 0.333341H10.6856C10.5846 0.333811 10.4863 0.366501 10.4052 0.426653C10.3241 0.486805 10.2642 0.571281 10.2344 0.667785L9.45666 3.23445C8.81268 3.42421 8.19181 3.68508 7.60555 4.01223L5.27222 2.75223C5.18209 2.70437 5.07893 2.68684 4.97805 2.70225C4.87717 2.71767 4.78395 2.76519 4.71222 2.83779L2.82222 4.68112C2.74963 4.75285 2.7021 4.84607 2.68669 4.94695C2.67128 5.04783 2.6888 5.15099 2.73666 5.24112L3.99666 7.57445C3.67004 8.15825 3.40919 8.77647 3.21889 9.41779L0.644442 10.1956C0.547938 10.2254 0.463462 10.2852 0.40331 10.3663C0.343158 10.4475 0.310468 10.5457 0.309998 10.6467V13.2756C0.310468 13.3766 0.343158 13.4748 0.40331 13.5559C0.463462 13.637 0.547938 13.6969 0.644442 13.7267L3.23444 14.5045C3.42682 15.1351 3.68763 15.7428 4.01222 16.3167L2.73666 18.7589C2.6888 18.849 2.67128 18.9522 2.68669 19.0531C2.7021 19.1539 2.74963 19.2472 2.82222 19.3189L4.68111 21.1778C4.75284 21.2504 4.84606 21.2979 4.94694 21.3133C5.04782 21.3287 5.15098 21.3112 5.24111 21.2633L7.64444 19.98C8.21297 20.2868 8.81268 20.5319 9.43333 20.7111L10.2111 23.3322C10.2409 23.4287 10.3007 23.5132 10.3819 23.5734C10.463 23.6335 10.5612 23.6662 10.6622 23.6667H13.2911C13.3921 23.6662 13.4903 23.6335 13.5715 23.5734C13.6526 23.5132 13.7124 23.4287 13.7422 23.3322L14.52 20.7033C15.1354 20.5232 15.7298 20.2781 16.2933 19.9722L18.7122 21.2633C18.8024 21.3112 18.9055 21.3287 19.0064 21.3133C19.1073 21.2979 19.2005 21.2504 19.2722 21.1778L21.1311 19.3189C21.2037 19.2472 21.2512 19.1539 21.2666 19.0531C21.2821 18.9522 21.2645 18.849 21.2167 18.7589L19.9256 16.3478C20.2346 15.7821 20.4823 15.185 20.6644 14.5667L23.2856 13.7889C23.3821 13.7591 23.4665 13.6993 23.5267 13.6181C23.5868 13.537 23.6195 13.4388 23.62 13.3378V10.6856C23.6246 10.5888 23.5995 10.493 23.548 10.411C23.4966 10.329 23.4213 10.2647 23.3322 10.2267ZM12 16.2778C11.1539 16.2778 10.3269 16.0269 9.62339 15.5568C8.91991 15.0868 8.37162 14.4187 8.04785 13.637C7.72407 12.8554 7.63936 11.9953 7.80442 11.1655C7.96948 10.3356 8.37689 9.57342 8.97515 8.97516C9.57341 8.3769 10.3356 7.96949 11.1654 7.80443C11.9953 7.63937 12.8554 7.72408 13.637 8.04786C14.4187 8.37163 15.0868 8.91993 15.5568 9.6234C16.0269 10.3269 16.2778 11.1539 16.2778 12C16.2778 13.1345 15.8271 14.2226 15.0248 15.0249C14.2226 15.8271 13.1345 16.2778 12 16.2778Z" fill="black"/>
</svg>
