<svg width="22" height="22" viewBox="0 0 22 22" fill="none" xmlns="http://www.w3.org/2000/svg">
<path d="M19.7778 0.111115H7.33333C6.92077 0.111115 6.52511 0.275003 6.23338 0.566726C5.94166 0.858449 5.77777 1.25411 5.77777 1.66667H19.7778V20.3333H7.33333V12.7111H5.77777V20.3333C5.77777 20.7459 5.94166 21.1416 6.23338 21.4333C6.52511 21.725 6.92077 21.8889 7.33333 21.8889H19.7778C20.1903 21.8889 20.586 21.725 20.8777 21.4333C21.1694 21.1416 21.3333 20.7459 21.3333 20.3333V1.66667C21.3333 1.25411 21.1694 0.858449 20.8777 0.566726C20.586 0.275003 20.1903 0.111115 19.7778 0.111115Z" fill="black"/>
<path d="M9.76 11.3578C9.67858 11.4275 9.61245 11.5133 9.56576 11.6098C9.51908 11.7063 9.49284 11.8114 9.48871 11.9185C9.48457 12.0256 9.50262 12.1325 9.54172 12.2323C9.58082 12.3321 9.64014 12.4227 9.71593 12.4985C9.79173 12.5743 9.88238 12.6336 9.98219 12.6727C10.082 12.7118 10.1888 12.7299 10.2959 12.7257C10.403 12.7216 10.5081 12.6954 10.6046 12.6487C10.7011 12.602 10.7869 12.5359 10.8567 12.4545L15.36 7.95113L10.8644 3.44779C10.7157 3.32037 10.5243 3.25379 10.3285 3.26135C10.1328 3.26891 9.94707 3.35006 9.80856 3.48858C9.67004 3.6271 9.58889 3.81278 9.58133 4.00853C9.57377 4.20428 9.64035 4.39567 9.76777 4.54446L12.3889 7.11113H1.11111C0.904827 7.11113 0.706996 7.19307 0.561134 7.33893C0.415272 7.4848 0.333328 7.68263 0.333328 7.88891C0.333328 8.09518 0.415272 8.29302 0.561134 8.43888C0.706996 8.58474 0.904827 8.66668 1.11111 8.66668H12.3889L9.76 11.3578Z" fill="black"/>
</svg>
