<svg width="105" height="105" viewBox="0 0 105 105" fill="none" xmlns="http://www.w3.org/2000/svg">
<path fill-rule="evenodd" clip-rule="evenodd" d="M105 52.5C105 66.4239 99.4688 79.7775 89.6231 89.6231C79.7775 99.4688 66.4239 105 52.5 105C38.5761 105 25.2226 99.4688 15.3769 89.6231C5.53124 79.7775 0 66.4239 0 52.5C0 38.5761 5.53124 25.2226 15.3769 15.3769C25.2226 5.53124 38.5761 0 52.5 0C66.4239 0 79.7775 5.53124 89.6231 15.3769C99.4688 25.2226 105 38.5761 105 52.5ZM54.8231 69.8644C55.4393 70.4805 55.7854 71.3162 55.7854 72.1875C55.7854 73.0588 55.4393 73.8945 54.8231 74.5106C54.207 75.1268 53.3713 75.4729 52.5 75.4729C51.6287 75.4729 50.793 75.1268 50.1769 74.5106L30.4894 54.8231C30.1838 54.5183 29.9414 54.1562 29.7759 53.7576C29.6105 53.359 29.5254 52.9316 29.5254 52.5C29.5254 52.0684 29.6105 51.641 29.7759 51.2424C29.9414 50.8438 30.1838 50.4817 30.4894 50.1769L50.1769 30.4894C50.482 30.1843 50.8441 29.9423 51.2427 29.7772C51.6413 29.6121 52.0686 29.5271 52.5 29.5271C52.9314 29.5271 53.3587 29.6121 53.7573 29.7772C54.1559 29.9423 54.518 30.1843 54.8231 30.4894C55.1282 30.7945 55.3702 31.1566 55.5353 31.5552C55.7004 31.9538 55.7854 32.3811 55.7854 32.8125C55.7854 33.2439 55.7004 33.6712 55.5353 34.0698C55.3702 34.4684 55.1282 34.8305 54.8231 35.1356L40.7334 49.2188H72.1875C73.0577 49.2188 73.8923 49.5645 74.5077 50.1798C75.123 50.7952 75.4688 51.6298 75.4688 52.5C75.4688 53.3702 75.123 54.2048 74.5077 54.8202C73.8923 55.4356 73.0577 55.7812 72.1875 55.7812H40.7334L54.8231 69.8644Z" fill="#174B41" fill-opacity="0.91"/>
</svg>
