<svg width="28" height="28" viewBox="0 0 28 28" fill="none" xmlns="http://www.w3.org/2000/svg">
<path d="M21.7778 3.11111H9.33333C8.92078 3.11111 8.52511 3.275 8.23339 3.56673C7.94167 3.85845 7.77778 4.25411 7.77778 4.66667H21.7778V23.3333H9.33333V15.7111H7.77778V23.3333C7.77778 23.7459 7.94167 24.1416 8.23339 24.4333C8.52511 24.725 8.92078 24.8889 9.33333 24.8889H21.7778C22.1903 24.8889 22.586 24.725 22.8777 24.4333C23.1694 24.1416 23.3333 23.7459 23.3333 23.3333V4.66667C23.3333 4.25411 23.1694 3.85845 22.8777 3.56673C22.586 3.275 22.1903 3.11111 21.7778 3.11111Z" fill="black"/>
<path d="M11.76 14.3578C11.6786 14.4275 11.6125 14.5133 11.5658 14.6098C11.5191 14.7063 11.4928 14.8114 11.4887 14.9185C11.4846 15.0256 11.5026 15.1325 11.5417 15.2323C11.5808 15.3321 11.6401 15.4227 11.7159 15.4985C11.7917 15.5743 11.8824 15.6336 11.9822 15.6727C12.082 15.7118 12.1888 15.7299 12.2959 15.7257C12.403 15.7216 12.5081 15.6954 12.6046 15.6487C12.7011 15.602 12.7869 15.5359 12.8567 15.4545L17.36 10.9511L12.8644 6.44779C12.7157 6.32037 12.5243 6.25379 12.3285 6.26135C12.1328 6.26891 11.9471 6.35006 11.8086 6.48858C11.67 6.6271 11.5889 6.81278 11.5813 7.00853C11.5738 7.20428 11.6404 7.39567 11.7678 7.54446L14.3889 10.1111H3.11111C2.90483 10.1111 2.707 10.1931 2.56114 10.3389C2.41528 10.4848 2.33333 10.6826 2.33333 10.8889C2.33333 11.0952 2.41528 11.293 2.56114 11.4389C2.707 11.5847 2.90483 11.6667 3.11111 11.6667H14.3889L11.76 14.3578Z" fill="black"/>
</svg>
