<svg width="22" height="24" viewBox="0 0 22 24" fill="none" xmlns="http://www.w3.org/2000/svg">
<path d="M15.5473 15.5656C16.209 15.2102 16.9664 15.0078 17.7731 15.0078H17.7758C17.8578 15.0078 17.8961 14.9094 17.8359 14.8547C16.9971 14.1019 16.0388 13.4938 15.0004 13.0555C14.9895 13.05 14.9785 13.0473 14.9676 13.0418C16.6656 11.8086 17.7703 9.8043 17.7703 7.54297C17.7703 3.79688 14.7406 0.761719 11.0027 0.761719C7.26485 0.761719 4.2379 3.79688 4.2379 7.54297C4.2379 9.8043 5.34259 11.8086 7.04337 13.0418C7.03243 13.0473 7.02149 13.05 7.01055 13.0555C5.78829 13.5723 4.6918 14.3133 3.74845 15.2594C2.81053 16.1956 2.06383 17.3054 1.55001 18.527C1.04446 19.7231 0.771617 21.0047 0.746101 22.3031C0.745371 22.3323 0.75049 22.3613 0.761156 22.3885C0.771822 22.4157 0.787819 22.4405 0.808205 22.4614C0.828591 22.4822 0.852953 22.4989 0.879856 22.5102C0.906759 22.5215 0.935658 22.5274 0.964851 22.5273H2.60274C2.72032 22.5273 2.81876 22.4316 2.82149 22.3141C2.87618 20.2031 3.7211 18.2262 5.2168 16.7277C6.76173 15.1773 8.81798 14.3242 11.0055 14.3242C12.5559 14.3242 14.0434 14.7535 15.3258 15.5574C15.3587 15.5781 15.3965 15.5898 15.4354 15.5912C15.4743 15.5927 15.5129 15.5838 15.5473 15.5656ZM11.0055 12.2461C9.75313 12.2461 8.57462 11.7566 7.68594 10.868C7.2487 10.4319 6.90207 9.91355 6.66602 9.34289C6.42997 8.77224 6.30916 8.16052 6.31055 7.54297C6.31055 6.28789 6.80001 5.10664 7.68594 4.21797C8.57188 3.3293 9.7504 2.83984 11.0055 2.83984C12.2606 2.83984 13.4363 3.3293 14.325 4.21797C14.7622 4.65408 15.1089 5.17239 15.3449 5.74304C15.581 6.3137 15.7018 6.92542 15.7004 7.54297C15.7004 8.79805 15.2109 9.9793 14.325 10.868C13.4363 11.7566 12.2578 12.2461 11.0055 12.2461ZM21.0625 18.7539H18.7656V16.457C18.7656 16.3367 18.6672 16.2383 18.5469 16.2383H17.0156C16.8953 16.2383 16.7969 16.3367 16.7969 16.457V18.7539H14.5C14.3797 18.7539 14.2813 18.8523 14.2813 18.9727V20.5039C14.2813 20.6242 14.3797 20.7227 14.5 20.7227H16.7969V23.0195C16.7969 23.1398 16.8953 23.2383 17.0156 23.2383H18.5469C18.6672 23.2383 18.7656 23.1398 18.7656 23.0195V20.7227H21.0625C21.1828 20.7227 21.2813 20.6242 21.2813 20.5039V18.9727C21.2813 18.8523 21.1828 18.7539 21.0625 18.7539Z" fill="black"/>
</svg>
